<mxfile host="app.diagrams.net" modified="2023-07-21T00:41:08.310Z" agent="Mozilla/5.0 (Windows NT 10.0; Win64; x64) AppleWebKit/537.36 (KHTML, like Gecko) Chrome/114.0.0.0 Safari/537.36" etag="6zAyj4S1snRGkMD77adq" version="21.6.2" type="github">
  <diagram name="第 1 页" id="Q685znsY0hPZmeAv8Ql4">
    <mxGraphModel dx="1050" dy="549" grid="1" gridSize="10" guides="1" tooltips="1" connect="1" arrows="1" fold="1" page="1" pageScale="1" pageWidth="827" pageHeight="1169" math="0" shadow="0">
      <root>
        <mxCell id="0" />
        <mxCell id="1" parent="0" />
        <mxCell id="dR_Oaee-5tXe5xdRxHg8-1" value="read()&lt;br style=&quot;font-size: 14px;&quot;&gt;读文件" style="rounded=1;whiteSpace=wrap;html=1;fontSize=14;fillColor=#f5f5f5;strokeColor=#666666;fontColor=#333333;" vertex="1" parent="1">
          <mxGeometry x="224" y="120" width="120" height="60" as="geometry" />
        </mxCell>
        <mxCell id="dR_Oaee-5tXe5xdRxHg8-2" value="" style="endArrow=classic;html=1;rounded=0;fontSize=14;entryX=0.5;entryY=0;entryDx=0;entryDy=0;" edge="1" parent="1" target="dR_Oaee-5tXe5xdRxHg8-4">
          <mxGeometry width="50" height="50" relative="1" as="geometry">
            <mxPoint x="284" y="180" as="sourcePoint" />
            <mxPoint x="284" y="250" as="targetPoint" />
          </mxGeometry>
        </mxCell>
        <mxCell id="dR_Oaee-5tXe5xdRxHg8-3" value="从Cache中读取" style="rounded=1;whiteSpace=wrap;html=1;fontSize=14;fillColor=#ffe6cc;strokeColor=#d79b00;" vertex="1" parent="1">
          <mxGeometry x="224" y="430" width="120" height="50" as="geometry" />
        </mxCell>
        <mxCell id="dR_Oaee-5tXe5xdRxHg8-4" value="数据&lt;br style=&quot;font-size: 14px;&quot;&gt;是否在Cache中?" style="rhombus;whiteSpace=wrap;html=1;fontSize=14;fillColor=#dae8fc;strokeColor=#6c8ebf;" vertex="1" parent="1">
          <mxGeometry x="214" y="240" width="140" height="100" as="geometry" />
        </mxCell>
        <mxCell id="dR_Oaee-5tXe5xdRxHg8-5" value="" style="endArrow=classic;html=1;rounded=0;exitX=1;exitY=0.5;exitDx=0;exitDy=0;entryX=0;entryY=0.5;entryDx=0;entryDy=0;fontSize=14;" edge="1" parent="1" source="dR_Oaee-5tXe5xdRxHg8-4" target="dR_Oaee-5tXe5xdRxHg8-9">
          <mxGeometry width="50" height="50" relative="1" as="geometry">
            <mxPoint x="334" y="320" as="sourcePoint" />
            <mxPoint x="454" y="290" as="targetPoint" />
          </mxGeometry>
        </mxCell>
        <mxCell id="dR_Oaee-5tXe5xdRxHg8-8" value="否(cache miss)" style="edgeLabel;html=1;align=center;verticalAlign=middle;resizable=0;points=[];fontSize=14;" vertex="1" connectable="0" parent="dR_Oaee-5tXe5xdRxHg8-5">
          <mxGeometry x="0.17" y="-1" relative="1" as="geometry">
            <mxPoint x="-6" y="-11" as="offset" />
          </mxGeometry>
        </mxCell>
        <mxCell id="dR_Oaee-5tXe5xdRxHg8-6" value="" style="endArrow=classic;html=1;rounded=0;exitX=0.5;exitY=1;exitDx=0;exitDy=0;entryX=0.5;entryY=0;entryDx=0;entryDy=0;fontSize=14;" edge="1" parent="1" source="dR_Oaee-5tXe5xdRxHg8-4" target="dR_Oaee-5tXe5xdRxHg8-3">
          <mxGeometry width="50" height="50" relative="1" as="geometry">
            <mxPoint x="334" y="320" as="sourcePoint" />
            <mxPoint x="384" y="270" as="targetPoint" />
          </mxGeometry>
        </mxCell>
        <mxCell id="dR_Oaee-5tXe5xdRxHg8-7" value="是(cache hit)" style="edgeLabel;html=1;align=center;verticalAlign=middle;resizable=0;points=[];fontSize=14;" vertex="1" connectable="0" parent="dR_Oaee-5tXe5xdRxHg8-6">
          <mxGeometry x="-0.3333" y="-4" relative="1" as="geometry">
            <mxPoint x="4" y="10" as="offset" />
          </mxGeometry>
        </mxCell>
        <mxCell id="dR_Oaee-5tXe5xdRxHg8-9" value="从磁盘中读取" style="rounded=1;whiteSpace=wrap;html=1;fontSize=14;fillColor=#d5e8d4;strokeColor=#82b366;" vertex="1" parent="1">
          <mxGeometry x="511" y="260" width="120" height="60" as="geometry" />
        </mxCell>
        <mxCell id="dR_Oaee-5tXe5xdRxHg8-12" value="将读取的数据缓存到Cache中" style="rounded=1;whiteSpace=wrap;html=1;fontSize=14;fillColor=#fff2cc;strokeColor=#d6b656;" vertex="1" parent="1">
          <mxGeometry x="511" y="420" width="120" height="60" as="geometry" />
        </mxCell>
        <mxCell id="dR_Oaee-5tXe5xdRxHg8-13" value="" style="endArrow=classic;html=1;rounded=0;exitX=0.5;exitY=1;exitDx=0;exitDy=0;entryX=0.5;entryY=0;entryDx=0;entryDy=0;fontSize=14;" edge="1" parent="1" source="dR_Oaee-5tXe5xdRxHg8-9" target="dR_Oaee-5tXe5xdRxHg8-12">
          <mxGeometry width="50" height="50" relative="1" as="geometry">
            <mxPoint x="371" y="320" as="sourcePoint" />
            <mxPoint x="421" y="270" as="targetPoint" />
            <Array as="points" />
          </mxGeometry>
        </mxCell>
        <mxCell id="dR_Oaee-5tXe5xdRxHg8-14" value="结束" style="rounded=1;whiteSpace=wrap;html=1;fontSize=14;fillColor=#f8cecc;strokeColor=#b85450;" vertex="1" parent="1">
          <mxGeometry x="224" y="565" width="120" height="60" as="geometry" />
        </mxCell>
        <mxCell id="dR_Oaee-5tXe5xdRxHg8-15" value="" style="endArrow=classic;html=1;rounded=0;exitX=0.5;exitY=1;exitDx=0;exitDy=0;entryX=0.5;entryY=0;entryDx=0;entryDy=0;fontSize=14;" edge="1" parent="1" source="dR_Oaee-5tXe5xdRxHg8-3" target="dR_Oaee-5tXe5xdRxHg8-14">
          <mxGeometry width="50" height="50" relative="1" as="geometry">
            <mxPoint x="334" y="420" as="sourcePoint" />
            <mxPoint x="384" y="370" as="targetPoint" />
          </mxGeometry>
        </mxCell>
        <mxCell id="dR_Oaee-5tXe5xdRxHg8-16" value="" style="endArrow=classic;html=1;rounded=0;exitX=0.5;exitY=1;exitDx=0;exitDy=0;entryX=0.5;entryY=0;entryDx=0;entryDy=0;edgeStyle=orthogonalEdgeStyle;fontSize=14;" edge="1" parent="1" source="dR_Oaee-5tXe5xdRxHg8-12" target="dR_Oaee-5tXe5xdRxHg8-14">
          <mxGeometry width="50" height="50" relative="1" as="geometry">
            <mxPoint x="334" y="420" as="sourcePoint" />
            <mxPoint x="384" y="370" as="targetPoint" />
            <Array as="points">
              <mxPoint x="570" y="480" />
              <mxPoint x="570" y="540" />
              <mxPoint x="284" y="540" />
            </Array>
          </mxGeometry>
        </mxCell>
      </root>
    </mxGraphModel>
  </diagram>
</mxfile>
